<?xml version="1.0" encoding="utf-8"?>
<!-- Generator: Adobe Illustrator 24.3.0, SVG Export Plug-In . SVG Version: 6.00 Build 0)  -->
<svg version="1.1" id="Calque_1" xmlns="http://www.w3.org/2000/svg" xmlns:xlink="http://www.w3.org/1999/xlink" x="0px" y="0px"
	 viewBox="0 0 681 120" style="enable-background:new 0 0 681 120;" xml:space="preserve">
<style type="text/css">
	.st0{fill:#FFFFFF;stroke:#F7F7F7;stroke-miterlimit:10;}
</style>
<g transform="translate(.5)">
	<path class="st0" d="M314.5,55.5c-11.6,11.3-25.4,24.3-33.1,24.3c-3.9,0-5.8-1.6-5.8-4.4c0-3.4,3.5-9.4,8.3-15.9
		c13.1-0.3,29.2-14.4,29.2-21.9c0-2.4-2.2-4.1-4.4-4.1c-5.3,0-21.2,8.1-30.9,19.5c-0.4-5.3-1.7-10.3-3.8-15
		c-2.7-5.9-6.3-11-10.9-15.4c-4.6-4.4-10-7.8-16.3-10.4c-6.3-2.5-13-3.8-20.3-3.8c-4.8,0-9.5,0.6-13.9,1.7
		c-4.4,1.2-8.5,2.8-12.4,4.9c-3.8,2.1-7.3,4.6-10.4,7.6c-1,0.9-1.9,1.9-2.8,2.9c-0.3-1.3-1.1-2.1-2.3-2.1c-2.9,0-8.5,5.5-8.5,10.8
		c0,1.7,0.6,3.6,1.8,4.3c-3.4,4.3-8,9.7-14,16.4h2.5c4.4-4.9,8-9,10.8-12.5c-0.2,0.5-0.3,1-0.5,1.5c-1.1,3.8-1.7,7.8-1.8,11.9
		c-5,6.1-9.1,12.9-9.1,19.2c0,5,4.8,6.3,7.7,6.3c1.8,0,4.1-0.9,6.7-2.4c0.5,1,1,1.9,1.5,2.8c2.2,3.7,4.8,7,8,10
		c3.1,3,6.6,5.6,10.4,7.8c3.8,2.2,7.9,3.8,12.4,5c4.4,1.2,9,1.8,13.9,1.8c4.8,0,9.5-0.6,13.9-1.8c4.4-1.2,8.5-2.9,12.4-5
		c3.8-2.2,7.3-4.7,10.4-7.8c3.1-3,5.7-6.4,7.9-10c0.6-1.1,1.2-2.2,1.8-3.3c1.9,1.8,4.7,2.9,8.6,2.9c11.3,0,30.9-21.7,35.5-26H314.5z
		 M309,35.4c0.7,0,1.2,0.7,1.2,1.4c0,3.9-10.9,19-24.2,20C294.4,46.1,305.5,35.4,309,35.4z M174.1,79.4c-1.6,0-2.2-0.8-2.2-1.7
		c0-1.8,1.9-5,4.6-8.7c0.1,0.4,0.2,0.8,0.3,1.1c0.7,2.6,1.7,5,2.8,7.4C177.4,78.7,175.5,79.4,174.1,79.4z M257.4,74.9
		c-1.4,5.5-3.6,10.2-6.4,14.2c-2.8,4-6.3,7.1-10.4,9.4c-4.1,2.2-8.8,3.4-14.1,3.4c-5.5,0-10.3-1.1-14.4-3.4
		c-4.1-2.2-7.6-5.4-10.4-9.4c-2.8-4-4.9-8.8-6.3-14.2c-0.5-2.1-0.9-4.2-1.3-6.4c6.1-5.4,11.5-11,13.8-13.4h-2.5
		c-3.1,3.3-7.3,7.4-11.6,11.3c-0.4-3-0.5-6.2-0.5-9.4c0-3.7,0.2-7.1,0.7-10.4c2.6-3.7,4.3-7,4.3-9.1c0-0.9-0.6-1.9-1.5-2.7
		c1.3-3.4,2.9-6.5,4.8-9.3c2.8-3.9,6.2-6.9,10.4-9.1c4.1-2.2,8.9-3.2,14.4-3.2c5.3,0,10,1.1,14.1,3.2c4.1,2.2,7.6,5.2,10.4,9.1
		c2.8,3.9,4.9,8.5,6.4,13.8c1.4,5.4,2.2,11.2,2.2,17.7C259.6,63.4,258.9,69.4,257.4,74.9z"/>
	<g>
		<path class="st0" d="M421,10.5v68.5h-0.6l-12.6-12.8c6.4-5.3,11.3-10.1,12.2-11h-2.4c-3.4,3.2-7.2,6.5-11.1,9.6l-6.3-6.4
			c0.2-0.6,0.3-1.3,0.5-1.9c1.6-6.9,0.9-10.8,3.3-17.3c1.1-3,12.4-11,12.4-14.6c0-1.3-1-2.2-2.3-2.2c-2.9,0-4.7,1.6-6.3,4
			c-2.9,4.3-4.5,6.3-6,11L389.8,48l-36.9-37.4H346v93.8h5.1V31.7l25.1,26.4c-4.1,4-6.3,11-6.3,14c0,5.5,3.9,9.4,10.2,9.4
			c3.8,0,8.6-2.1,13.5-5.1l28.6,30.1h3.7v-96H421z M400.3,41c-1.5,4-3.3,8.2-5.3,12.3l-4.1-4.1L400.3,41z M376.6,76.6
			c-3.4,0-4.2-2.7-4.2-5.3c0-2.7,1.4-4.6,3-6.3c0.7,0.6,1.6,0.9,2.7,0.9c1.6,0,3.1-0.3,4.4-1l3.7,3.9
			C382.9,73.5,379.5,76.6,376.6,76.6z"/>
		<polygon class="st0" points="420,55.3 420,55.3 420,55.3 		"/>
	</g>
	<path class="st0" d="M552,54.9h-2.4c-6,5.9-26.3,24.2-31.3,24.2c-1,0-2.6-0.1-2.6-1.6c0-6.3,26.2-26.1,26.2-38.3c0-4-2-5.7-4.7-5.7
		c-7.6,0-21,13.6-22.3,15.2c1.9-3.7,3.3-7.2,3.3-9c0-3.4-1.4-5.6-4.1-6.1V10.5h-16v33.7c-3.4,3.2-7.1,6.9-11,10.6h2.4
		c3-2.9,5.8-5.7,8.5-8.2v11.8l-18,21.6h10.8l7.2-8.5v33h16V80.9c0.8,0.4,1.8,0.6,2.9,0.6C524.7,81.5,541.8,64.5,552,54.9z M514,52.9
		c6.4-6.8,17.6-17,21.9-17c0.7,0,1.4,0.7,1.4,1.6c0,3.5-16.6,15.4-23.3,28.3V52.9z"/>
	<path class="st0" d="M666,104.5L648.3,66c4.9-4.6,8.9-8.8,10.7-10.5h-2.5c-2.9,2.8-6,5.8-9,8.6l-4.9-10.8
		c7.1-4.8,12.5-11.4,12.5-15.7c0-2.4-2.2-4.1-4.4-4.1c-2.8,0-8.4,2.2-14.6,5.9L622,8.5h-3.9l-45.1,96h6l35.9-76.4l9.4,20.3
		C617.4,54.9,612,62.7,612,71c0,6,3.5,10.6,11.5,10.6c3.8,0,8.5-2.4,13.3-5.9l13.3,28.9H666z M651,35.4c0.7,0,1.2,0.7,1.2,1.4
		c0,2.4-4.2,9.2-10.7,14.2l-2.9-6.3C644,39.3,648.9,35.4,651,35.4z M628.1,56.8C628,56.8,628,56.8,628.1,56.8
		C628,56.8,628,56.8,628.1,56.8L628.1,56.8z M623.5,79.8c-3.9,0-5.8-1.6-5.8-4.4h0c0-3.4,3.5-9.4,8.3-15.9c1.1,0,2.1-0.1,3.2-0.3
		l6.8,14.7C631.1,77.5,626.7,79.8,623.5,79.8z"/>
	<g>
		<path class="st0" d="M103.2,58.7c-2.4-1.7-5.3-3.7-8.9-5.9c2.3-4,3.7-8.1,3.7-11.9c0-3.7-1.9-7.3-5.6-7.3c-3,0-7,1.7-11,4.3
			l2.9-3.4H73.4l-2.6,3.2c-0.7-0.8-1.4-1.6-2-2.5c-1.4-2.2-2-4.7-1.7-7.4c0-0.1,0-0.1,0-0.2c0.2-1.5,0.7-3,1.6-4.5
			c0.9-1.6,2.2-3,3.8-4.2c1.1-0.8,2.4-1.5,3.8-2c0,0,0,0,0,0c0,0,0.1,0,0.1,0c0.6-0.2,1.3-0.4,2-0.6c1.5-0.4,3.2-0.5,5-0.5
			c0.2,0,0.3,0,0.5,0c0.1,0,0.3,0,0.4,0c1.9,0.1,3.7,0.3,5.4,0.6c3.8,0.6,10.2,4.2,14.3,8.3l0.1,0c0,0,0.1,0.1,0.1,0.1l4-2.7
			c0,0-5.8-10.3-21.2-12.2c-1.7-0.2-3.4-0.2-5.1-0.2c-2.7,0-5.3,0.3-7.7,0.8c-3.9,0.9-7.3,2.3-10.2,4.2c-2.9,2-5.1,4.4-6.8,7.3
			c-1.7,2.9-2.7,6.1-3.1,9.7c-0.1,0.5-0.1,0.9-0.1,1.4c0,0.1-0.1,0.2-0.1,0.3c-0.3,2.4-0.1,4.7,0.4,7.1c0.5,2.4,1.6,5,3.3,7.7
			c0.1,0.2,0.3,0.5,0.5,0.7l1.1,1.6c0.2,0.3,0.4,0.5,0.6,0.8L14,107.5h10.9l26.8-34c0.3,4,1.2,8,5.9,8c5.4,0,15.8-5.9,24.6-14
			c0.8,0.4,1.4,0.8,1.8,1c3.1,1.6,5.1,2.7,7.5,4.6c2,1.5,3.6,3.2,5,5c0,0,0,0,0,0c0.3,0.4,0.6,0.7,0.8,1.1c1.5,2.2,2.2,4.8,2.2,7.6
			c0,2.4-0.5,4.5-1.6,6.3c-1.1,1.8-2.5,3.3-4.3,4.6c-1.8,1.2-3.8,2.2-6.1,2.8c-1.7,0.5-3.4,0.8-5.2,0.9c-0.4,0-0.8,0-1.1,0
			c-0.2,0-0.4,0-0.6,0c0,0,0,0,0,0c0,0,0,0,0,0c-6.2,0-11.6-1.7-16.2-5.1c-3.1-2.3-7.4-8.7-7.5-8.8l-0.3,0.1c0,0,0,0,0-0.1L52,89.8
			c0,0,0.6,1.7,2.1,4c0,0.1,0.1,0.1,0.1,0.2c0,0,0,0,0,0c0.3,0.5,0.7,1,1.1,1.6c1.4,1.9,2.6,3.5,4.8,4.9c0,0,0,0,0,0
			c0.9,0.8,2,1.5,3.1,2.2c1.4,0.9,2.9,1.8,5.1,2.5c0,0,0,0,0.1,0c0.5,0.2,1,0.4,1.5,0.5c0.2,0,0.4,0.1,0.5,0.1
			c2.7,0.9,5.4,1.5,9,1.5c0.4,0,0.8,0,1.1,0c4.4,0.3,8.3,0,11.9-0.8c4.4-1,8.1-2.5,11.1-4.6c2.7-1.8,4.8-4.1,6.5-6.7
			c0.9-1.2,1.9-3.3,2.5-4.7c1.5-3.7,1.9-5.3,2.2-8.2c0.6-5.2-0.7-10.2-2.7-13.9C109.9,64.6,107.1,61.6,103.2,58.7z M89.5,35.9
			c0,0,2.9-0.7,2.9,1.8c0,1.5-2.4,5.5-6,10.3c-3.4-2-6.2-3.7-8.5-5C83,38.8,87.4,36,89.5,35.9z M57.3,78.1c-3.8,0-3.6-3-3.2-5.1
			c0.7-4.6,5.1-11,10.5-17.1c1.1,0.9,2.2,1.8,3.4,2.7l0,0c2.1,1.5,4.3,3,6.4,4.3C67.1,71.1,59.8,78.1,57.3,78.1z"/>
	</g>
</g>
</svg>
