<?xml version="1.0" encoding="utf-8"?>
<!-- Generator: Adobe Illustrator 24.3.0, SVG Export Plug-In . SVG Version: 6.00 Build 0)  -->
<svg version="1.1" id="Calque_1" xmlns="http://www.w3.org/2000/svg" xmlns:xlink="http://www.w3.org/1999/xlink" x="0px" y="0px"
	 viewBox="0 0 681 120" style="enable-background:new 0 0 681 120;" xml:space="preserve">
<style type="text/css">
	.st0{fill:#4D5170;}
	.st1{fill:url(#SVGID_1_);}
	.st2{fill:url(#SVGID_2_);}
	.st3{fill:url(#SVGID_3_);}
	.st4{fill:url(#SVGID_4_);}
	.st5{fill:url(#SVGID_5_);}
	.st6{fill:url(#SVGID_6_);}
</style>
<g transform="translate(.5)">
	<path class="st0" d="M226.5,106.5c-4.8,0-9.5-0.6-13.9-1.8c-4.4-1.2-8.5-2.9-12.4-5c-3.8-2.2-7.3-4.7-10.4-7.8c-3.1-3-5.8-6.4-8-10
		c-2.2-3.7-3.9-7.6-5.1-11.9c-1.2-4.2-1.8-8.6-1.8-13.1c0-4.5,0.6-8.8,1.8-12.9c1.2-4.1,2.9-8,5.1-11.5c2.2-3.6,4.8-6.9,8-9.8
		c3.1-3,6.6-5.5,10.4-7.6c3.8-2.1,7.9-3.7,12.4-4.9c4.4-1.2,9-1.7,13.9-1.7c7.3,0,14,1.3,20.3,3.8c6.3,2.5,11.7,6,16.3,10.4
		c4.6,4.4,8.2,9.5,10.9,15.4c2.7,5.9,4,12.2,4,18.9c0,4.5-0.6,8.9-1.8,13.1c-1.2,4.2-2.9,8.2-5.1,11.9c-2.2,3.7-4.8,7-7.9,10
		c-3.1,3-6.6,5.6-10.4,7.8c-3.8,2.2-7.9,3.8-12.4,5C236,106,231.4,106.5,226.5,106.5z M226.5,101.9c5.3,0,10-1.1,14.1-3.4
		c4.1-2.2,7.6-5.4,10.4-9.4c2.8-4,4.9-8.8,6.4-14.2c1.4-5.5,2.2-11.5,2.2-18c0-6.4-0.7-12.3-2.2-17.7c-1.4-5.4-3.6-10-6.4-13.8
		c-2.8-3.9-6.3-6.9-10.4-9.1c-4.1-2.2-8.8-3.2-14.1-3.2c-5.5,0-10.3,1.1-14.4,3.2c-4.1,2.2-7.6,5.2-10.4,9.1
		c-2.8,3.9-4.9,8.5-6.3,13.8c-1.4,5.4-2.1,11.2-2.1,17.7c0,6.5,0.7,12.5,2.1,18c1.4,5.5,3.5,10.2,6.3,14.2c2.8,4,6.2,7.1,10.4,9.4
		C216.3,100.8,221.1,101.9,226.5,101.9L226.5,101.9z"/>
	<path class="st0" d="M346,10.5h6.9l67.5,68.5h0.6V10.5h5v96h-3.7l-71.2-74.8v72.6H346V10.5z"/>
	<path class="st0" d="M498,10.5h16v94h-16V10.5z"/>
	<path class="st0" d="M579,104.5h-6l45.1-96h3.9l44,96h-16l-35.2-76.4L579,104.5z"/>
	
		<linearGradient id="SVGID_1_" gradientUnits="userSpaceOnUse" x1="301.697" y1="91.5938" x2="302.1853" y2="92.2297" gradientTransform="matrix(44 0 0 -58 -13101.0049 5387.5464)">
		<stop  offset="0.6001" style="stop-color:#E4E7E9"/>
		<stop  offset="0.6146" style="stop-color:#E2E7E9"/>
		<stop  offset="0.7748" style="stop-color:#C6E1EA"/>
		<stop  offset="0.9089" style="stop-color:#B2DDEA"/>
		<stop  offset="1" style="stop-color:#ABDBEA"/>
	</linearGradient>
	<path class="st1" d="M176.2,34.3c0-5.3,5.5-10.8,8.5-10.8c1.6,0,2.5,1.3,2.5,3.3c0,1.7-1.3,4.5-4.6,9c3.8-0.6,6.8-2.4,11.3-2.4
		c2.2,0,4.5,2,4.5,3.9c0,8.5-26.5,33.4-26.5,40.3c0,1,0.6,1.7,2.2,1.7c6.8,0,22.9-15.4,31.5-24.3h2.5c-5.1,5.3-25.6,26.5-34.4,26.5
		c-2.9,0-7.7-1.3-7.7-6.3c0-16.1,26.4-34.8,26.4-38.4c0-0.6-0.3-0.7-0.9-0.7c-2.6,0-6.2,2.5-11.1,2.8c-3.2,4.1-7.7,9.4-13.8,16.2
		H164c6-6.7,10.7-12.1,14-16.4C176.8,38,176.2,36.1,176.2,34.3L176.2,34.3z"/>
	
		<linearGradient id="SVGID_2_" gradientUnits="userSpaceOnUse" x1="302.4255" y1="91.5833" x2="302.4255" y2="92.5833" gradientTransform="matrix(47 0 0 -48 -13920.5 4477.5459)">
		<stop  offset="0.6001" style="stop-color:#E4E7E9"/>
		<stop  offset="0.6146" style="stop-color:#E2E7E9"/>
		<stop  offset="0.7748" style="stop-color:#C6E1EA"/>
		<stop  offset="0.9089" style="stop-color:#B2DDEA"/>
		<stop  offset="1" style="stop-color:#ABDBEA"/>
	</linearGradient>
	<path class="st2" d="M275.7,75.4c0,2.9,1.9,4.4,5.8,4.4c7.7,0,21.5-13,33.1-24.3h2.5c-4.6,4.3-24.2,26-35.5,26
		c-8,0-11.5-4.6-11.5-10.6c0-19.7,30.9-37.4,38.7-37.4c2.2,0,4.4,1.7,4.4,4.1c0,7.4-16.1,21.6-29.2,21.9
		C279.1,66,275.7,72,275.7,75.4z M309,35.4c-3.5,0-14.7,10.7-23.1,21.4c13.3-1,24.2-16.1,24.2-20C310.2,36.1,309.7,35.4,309,35.4
		L309,35.4z"/>
	
		<linearGradient id="SVGID_3_" gradientUnits="userSpaceOnUse" x1="302.82" y1="91.4746" x2="302.82" y2="92.4746" gradientTransform="matrix(50 0 0 -59 -14746 5478.5464)">
		<stop  offset="0.6001" style="stop-color:#E4E7E9"/>
		<stop  offset="0.6146" style="stop-color:#E2E7E9"/>
		<stop  offset="0.7748" style="stop-color:#C6E1EA"/>
		<stop  offset="0.9089" style="stop-color:#B2DDEA"/>
		<stop  offset="1" style="stop-color:#ABDBEA"/>
	</linearGradient>
	<path class="st3" d="M420,55.3c-2.2,2.2-27,26.3-39.8,26.3c-6.3,0-10.2-3.9-10.2-9.4c0-4,3.9-15.6,11.4-16.7l20.3-17.9
		c1.6-4.6,3.2-6.6,6-11c1.6-2.5,3.4-4,6.3-4c1.3,0,2.3,0.9,2.3,2.2c0,3.6-11.2,11.5-12.4,14.6c-2.4,6.5-1.7,10.4-3.3,17.3
		c-1.4,6.5-3.6,13-7,17.7c7.9-5,17-12.4,24-19L420,55.3L420,55.3z M383.8,55.4c1.6,0.6,2.6,2,2.6,3.8c0,4.2-4,6.6-8.2,6.6
		c-1.1,0-2-0.3-2.7-0.9c-1.6,1.7-3,3.6-3,6.3c0,2.6,0.7,5.3,4.2,5.3c7.2,0,17.5-19.5,23.7-35.6L383.8,55.4z"/>
	
		<linearGradient id="SVGID_4_" gradientUnits="userSpaceOnUse" x1="304.4515" y1="91.789" x2="304.9355" y2="92.3461" gradientTransform="matrix(71.9998 0 0 -48 -21422.9531 4477.5459)">
		<stop  offset="0.6001" style="stop-color:#E4E7E9"/>
		<stop  offset="0.6146" style="stop-color:#E2E7E9"/>
		<stop  offset="0.7748" style="stop-color:#C6E1EA"/>
		<stop  offset="0.9089" style="stop-color:#B2DDEA"/>
		<stop  offset="1" style="stop-color:#ABDBEA"/>
	</linearGradient>
	<path class="st4" d="M510.8,56.5l-20,23.6H480l30.8-37c1.1-1.4,3.2-3.3,3.2-5.9c0-0.7-0.3-1.6-1.1-1.6c-3.6,0-12.8,9-23.3,19.2H487
		c11.2-10.9,21.4-21.3,25.9-21.3c3.4,0,5.2,2.3,5.2,6.2c0,1.9-1.4,5.3-3.3,9c1.3-1.6,14.7-15.2,22.3-15.2c2.7,0,4.7,1.7,4.7,5.7
		c0,12.2-26.2,32-26.2,38.3c0,1.4,1.6,1.6,2.6,1.6c5,0,25.3-18.3,31.3-24.2h2.4c-10.2,9.6-27.3,26.7-35.1,26.7c-3.9,0-5.7-2.6-5.7-6
		c0-16,26.2-33.7,26.2-38.1c0-0.9-0.7-1.6-1.4-1.6C530.7,35.8,515.6,50.6,510.8,56.5L510.8,56.5z"/>
	
		<linearGradient id="SVGID_5_" gradientUnits="userSpaceOnUse" x1="302.1542" y1="91.5503" x2="302.7504" y2="92.5889" gradientTransform="matrix(47 0 0 -48 -13578.5 4477.5459)">
		<stop  offset="0.6001" style="stop-color:#E4E7E9"/>
		<stop  offset="0.6146" style="stop-color:#E2E7E9"/>
		<stop  offset="0.7748" style="stop-color:#C6E1EA"/>
		<stop  offset="0.9089" style="stop-color:#B2DDEA"/>
		<stop  offset="1" style="stop-color:#ABDBEA"/>
	</linearGradient>
	<path class="st5" d="M617.7,75.4c0,2.9,1.9,4.4,5.8,4.4c7.7,0,21.5-13,33.1-24.3h2.5c-4.6,4.3-24.2,26-35.5,26
		c-8,0-11.5-4.6-11.5-10.6c0-19.7,30.9-37.4,38.7-37.4c2.2,0,4.4,1.7,4.4,4.1c0,7.4-16.1,21.6-29.2,21.9
		C621.1,66,617.7,72,617.7,75.4L617.7,75.4z M651,35.4c-3.5,0-14.7,10.7-23.1,21.4c13.3-1,24.2-16.1,24.2-20
		C652.2,36.1,651.7,35.4,651,35.4z"/>
	<path class="st0" d="M112.1,68.6c-2.3-4.1-5.1-7.1-8.9-9.9C99.4,55.9,94,52.4,87,48.4c-5.8-3.3-9.9-5.8-12.5-7.6
		c-2.6-1.7-4.5-3.7-6-5.9c-1.4-2.2-2-4.6-1.7-7.4c0-0.1,0-0.1,0-0.2c0.2-1.5,0.7-3,1.6-4.4c0.9-1.6,2.2-3,3.8-4.2
		c1.1-0.8,2.4-1.4,3.8-2c0,0,0,0,0,0c0,0,0.1,0,0.1,0c0.6-0.2,1.3-0.4,2-0.6c1.5-0.4,3.2-0.5,5-0.5c0.2,0,0.3,0,0.5,0
		c0.1,0,0.3,0,0.4,0c2,0.1,3.7,0.3,5.5,0.6c3.8,0.5,10.3,4.2,14.4,8.3l4-2.7c0,0-5.8-10.2-21.2-12.1c-4.6-0.4-8.8-0.2-12.5,0.6
		c-3.9,0.9-7.3,2.3-10.2,4.2c-2.9,2-5.1,4.4-6.8,7.3c-1.7,2.9-2.7,6.1-3.1,9.7c-0.1,0.5-0.1,0.9-0.1,1.4c0,0.1-0.1,0.2-0.1,0.3
		c-0.3,2.4-0.1,4.7,0.4,7.1c0.5,2.4,1.6,5,3.3,7.7c0.1,0.2,0.3,0.5,0.5,0.7l1.1,1.6c0.4,0.5,0.8,1,1.2,1.5
		c5.8,6.4,20.8,15,23.7,16.5c3.1,1.6,5.1,2.7,7.5,4.6c2,1.5,3.6,3.2,5,5c0,0,0,0,0,0c0.3,0.4,0.6,0.7,0.8,1.1
		c1.5,2.2,2.2,4.8,2.2,7.6c0,2.4-0.5,4.5-1.6,6.3c-1.1,1.8-2.5,3.3-4.3,4.6c-1.8,1.2-3.8,2.2-6.1,2.8c-1.7,0.5-3.4,0.8-5.2,0.9
		c-0.4,0-0.8,0-1.1,0c-0.2,0-0.4,0-0.6,0c0,0,0,0,0,0c0,0,0,0,0,0c-6.2,0-11.6-1.7-16.2-5.1c-3.1-2.3-7.4-8.7-7.5-8.8l-0.3,0.1
		c0,0,0,0,0-0.1L52,89.8c0,0,0.6,1.7,2.1,4c0,0.1,0.1,0.1,0.1,0.2c0,0,0,0,0,0c0.3,0.5,0.7,1,1.1,1.6c1.4,1.9,2.6,3.5,4.8,4.9
		c0,0,0,0,0,0c0.9,0.8,2,1.5,3.1,2.2c1.4,0.9,2.9,1.8,5.1,2.5c0,0,0,0,0.1,0c0.5,0.2,1,0.4,1.5,0.5c0.2,0,0.4,0.1,0.5,0.1
		c2.7,0.9,5.4,1.5,9,1.5c0.4,0,0.8,0,1.1,0c4.4,0.3,8.3,0,11.9-0.8c4.4-1,8.1-2.5,11.1-4.6c2.7-1.8,4.8-4.1,6.5-6.7
		c0.9-1.2,1.9-3.3,2.5-4.7c1.5-3.7,1.9-5.3,2.2-8.2C115.4,77.3,114.2,72.3,112.1,68.6z"/>
	
		<linearGradient id="SVGID_6_" gradientUnits="userSpaceOnUse" x1="305.3214" y1="91.3784" x2="305.3214" y2="92.3784" gradientTransform="matrix(84 0 0 -74 -25590.998 6869.5459)">
		<stop  offset="0.6001" style="stop-color:#E4E7E9"/>
		<stop  offset="0.6146" style="stop-color:#E2E7E9"/>
		<stop  offset="0.7748" style="stop-color:#C6E1EA"/>
		<stop  offset="0.9089" style="stop-color:#B2DDEA"/>
		<stop  offset="1" style="stop-color:#ABDBEA"/>
	</linearGradient>
	<path class="st6" d="M24.9,107.5H14l59.4-73.1h10.9l-2.9,3.4c4.1-2.6,8-4.3,11-4.3c3.8,0,5.6,3.6,5.6,7.3
		c0,17.8-29.7,40.7-40.4,40.7c-4.8,0-5.6-4-5.9-8L24.9,107.5z M92.4,37.7c0-2.4-2.9-1.8-2.9-1.8C83.3,36.2,56.1,60.7,54.1,73
		c-0.3,2.1-0.6,5.1,3.2,5.1C63,78.1,92.4,43,92.4,37.7z"/>
	<g>
		<path class="st0" d="M200.5,99.5c-3.8-2.2-7.3-4.8-10.4-7.8c-3.1-3-5.8-6.4-8-10.1c-2.2-3.7-3.9-7.7-5.1-11.9l16.6-13.2
			c0,6.5,0.7,12.5,2.1,18c1.4,5.5,3.5,10.3,6.3,14.3L200.5,99.5z"/>
		<path class="st0" d="M352.7,10.5L395,53.3l-8.8,15.2L351,31.6"/>
		<path class="st0" d="M498,10.5h16v20h-16V10.5z"/>
		<path class="st0" d="M645.8,60.5l20.2,44h-16.1L634,70.2"/>
		<path class="st0" d="M68,58.5c-2.9-2.1-5.6-4.4-7.4-6.4c-0.4-0.5-0.8-1-1.2-1.5l-1.1-1.6c-0.2-0.2-0.3-0.5-0.5-0.7
			c-1.7-2.8-2.8-5.4-3.3-7.8c-0.5-2.4-0.6-4.8-0.4-7.2c0-0.1,0-0.2,0.1-0.3c0-0.5,0.1-0.9,0.1-1.4c0.4-3.6,1.4-6.8,3.1-9.7
			c1.7-2.9,3.9-5.4,6.8-7.3c2.8-2,6.2-3.4,10.2-4.3c3.7-0.8,7.9-1,12.5-0.6C102.2,11.7,108,22,108,22l-4,2.7
			c-4.1-4.2-10.6-7.9-14.4-8.4c-1.7-0.2-3.5-0.5-5.5-0.6c-0.1,0-0.3,0-0.4,0c-0.2,0-0.3,0-0.5,0c-1.8,0-3.5,0.2-5,0.5
			c-0.7,0.2-1.4,0.4-2,0.6c0,0-0.1,0-0.1,0c0,0,0,0,0,0c-1.4,0.5-2.7,1.2-3.8,2c-1.6,1.2-2.9,2.6-3.8,4.2c-0.8,1.4-1.3,2.9-1.6,4.5
			c0,0.1,0,0.1,0,0.2c-0.3,2.7,0.3,5.2,1.7,7.4c1.4,2.2,3.4,4.2,6,5.9c1.5,1,3.6,2.4,6.3,4L68,58.5z"/>
	</g>
</g>
</svg>
